<svg xmlns="http://www.w3.org/2000/svg" viewBox="0 0 76.39 64.76"><g id="Layer_2" data-name="Layer 2"><g id="Layer_8" data-name="Layer 8"><polygon id="fold" points="0 21.11 7.49 21.11 7.49 0 0 21.11"/><polyline id="main" points="76.39 64.76 7.49 64.76 7.49 27.02 7.49 0 76.39 0 76.39 27.02" fill="#fff"/><path id="logo" d="M60,22.2a13.76,13.76,0,0,1-3.64,1,7.12,7.12,0,0,0,3-3.68.11.11,0,0,0-.16-.13A13.6,13.6,0,0,1,55,21a6.81,6.81,0,0,0-5.06-2.26A7.05,7.05,0,0,0,43,25.85a7.34,7.34,0,0,0,.18,1.63A19.5,19.5,0,0,1,28.87,20s-.05,0-.06,0a7.33,7.33,0,0,0,2.05,9.42,0,0,0,0,1,0,.08,6.84,6.84,0,0,1-2.94-.86s-.06,0,0,0a9.78,9.78,0,0,0,.46,2.62,7.1,7.1,0,0,0,5.1,4.43,6.91,6.91,0,0,1-1.83.25,6.54,6.54,0,0,1-1.25-.12,0,0,0,0,0,0,.05,7,7,0,0,0,6.35,4.91,0,0,0,0,1,0,.07,13.62,13.62,0,0,1-8.53,3,15.07,15.07,0,0,1-1.65-.1A19.21,19.21,0,0,0,37.12,47a18.8,18.8,0,0,0,13-4.92A21.17,21.17,0,0,0,56.39,31a20.7,20.7,0,0,0,.47-4.32c0-.31,0-.62,0-.93a14,14,0,0,0,3.25-3.39A.11.11,0,0,0,60,22.2Z"/></g></g></svg>