<svg xmlns="http://www.w3.org/2000/svg" width="14.24" height="12" viewBox="0 0 14.24 12">
  <path d="M14.2,1.49a6.45,6.45,0,0,1-1.55.41A3,3,0,0,0,13.91.34a0,0,0,0,0,0-.06,0,0,0,0,0,0,0A5.64,5.64,0,0,1,12.08,1,2.9,2.9,0,0,0,9.93,0,3,3,0,0,0,7,3a3.26,3.26,0,0,0,.07.7A8.27,8.27,0,0,1,1,.57H1a3.08,3.08,0,0,0,.86,4h0A2.78,2.78,0,0,1,.6,4.24h0A4.7,4.7,0,0,0,.8,5.36,3,3,0,0,0,2.94,7.24a2.94,2.94,0,0,1-.78.11,4.69,4.69,0,0,1-.53,0h0A3,3,0,0,0,4.31,9.4h0A5.78,5.78,0,0,1,.7,10.7a4.09,4.09,0,0,1-.7,0A8.09,8.09,0,0,0,4.51,12,8,8,0,0,0,10,9.94a9,9,0,0,0,2.66-4.72,8.62,8.62,0,0,0,.2-1.83V3a5.86,5.86,0,0,0,1.38-1.43Z" style="fill: #fff"/>
</svg>
