<svg xmlns="http://www.w3.org/2000/svg" width="14.33" height="14.34" viewBox="0 0 14.33 14.34">
  <g>
    <circle cx="7.18" cy="7.18" r="2" style="fill: #fff"/>
    <path d="M14.32,4.22A5.46,5.46,0,0,0,14,2.48a3.56,3.56,0,0,0-.82-1.27,3.37,3.37,0,0,0-1.3-.83A5.42,5.42,0,0,0,10.14,0H4.22A5.42,5.42,0,0,0,2.48.38a3.38,3.38,0,0,0-1.27.83A3.38,3.38,0,0,0,.38,2.48,5.42,5.42,0,0,0,0,4.22v6A5.18,5.18,0,0,0,.34,12a3.49,3.49,0,0,0,.83,1.28A3.32,3.32,0,0,0,2.48,14a5.22,5.22,0,0,0,1.74.34h6A5.23,5.23,0,0,0,11.88,14,3.57,3.57,0,0,0,14,11.9a5.18,5.18,0,0,0,.34-1.74v-3C14.32,5.16,14.35,5,14.32,4.22ZM7.18,10.87a3.69,3.69,0,1,1,3.69-3.69,3.69,3.69,0,0,1-3.69,3.69ZM11,4.21a.86.86,0,1,1,.86-.86.87.87,0,0,1-.86.86Z" style="fill: #fff"/>
  </g>
</svg>
