<svg xmlns="http://www.w3.org/2000/svg" width="88.08" height="48.76" viewBox="0 0 88.08 48.76"><g id="b74afef6-e49d-45c0-a508-9c73947bedd5" data-name="Layer 2"><g id="f840d69a-7180-41db-b372-340252e14a50" data-name="Layer 1"><rect width="88.08" height="48.76" fill="#c6c6cc" class="light_shape"/><path d="M57.6,17.11a11,11,0,0,1-2.86.77A5.61,5.61,0,0,0,57.06,15c0-.08-.06-.15-.12-.11a10.55,10.55,0,0,1-3.26,1.25,5.34,5.34,0,0,0-4-1.77A5.52,5.52,0,0,0,44.29,20a6,6,0,0,0,.14,1.28,15.28,15.28,0,0,1-11.16-5.82,0,0,0,0,0-.05,0,5.77,5.77,0,0,0-.71,2.78,5.62,5.62,0,0,0,2.32,4.59s0,.07,0,.07a5.44,5.44,0,0,1-2.3-.67s0,0,0,0a8,8,0,0,0,.36,2.05,5.55,5.55,0,0,0,4,3.46,5.25,5.25,0,0,1-1.43.2,5.33,5.33,0,0,1-1-.09s0,0,0,0a5.46,5.46,0,0,0,5,3.83,0,0,0,0,1,0,.06,10.63,10.63,0,0,1-6.67,2.34A11,11,0,0,1,31.4,34a15,15,0,0,0,8.32,2.51,14.72,14.72,0,0,0,10.17-3.84A16.63,16.63,0,0,0,54.8,24a16.34,16.34,0,0,0,.37-3.38c0-.24,0-.48,0-.72a11.3,11.3,0,0,0,2.55-2.66C57.74,17.17,57.67,17.08,57.6,17.11Z" fill="#59596b" class="dark_shape"/></g></g></svg>