<svg xmlns="http://www.w3.org/2000/svg" width="119.42" height="33.7" viewBox="0 0 119.42 33.7"><g id="a98d8f19-c50c-486b-90ba-12e33058c56e" data-name="Layer 2"><g id="b7c61690-2fec-4668-a2bd-ad61e623a2e0" data-name="Layer 1"><rect x="0.5" y="0.5" width="118.42" height="32.7" rx="3.1" fill="none" stroke="#fff" stroke-miterlimit="10"/><path d="M23.1,17.83a2.78,2.78,0,0,1,3.08,3c0,2.3-1.86,3.82-4.64,3.82H13.92V11.27h7.62c2.54,0,4.24,1.4,4.24,3.52a2.74,2.74,0,0,1-2.68,3Zm-4.76-1.16H20.2c.76,0,1.26-.42,1.26-1s-.5-1-1.26-1H18.34Zm2.06,4.68a1.15,1.15,0,0,0,1.26-1.18c0-.62-.5-1-1.26-1H18.34v2.2Z" fill="#59596b" class="dark_shape"/><path d="M41.72,18.57c0,4-2.52,6.4-6.28,6.4S29,22.55,29,18.57v-7.3h4.44v7.3c0,1.62.8,2.48,2,2.48s1.84-.86,1.84-2.48v-7.3h4.44Z" fill="#59596b" class="dark_shape"/><path d="M53,15v9.68H48.6V15H44.52V11.27H57.1V15Z" fill="#59596b" class="dark_shape"/><path d="M68,15v9.68H63.58V15H59.5V11.27H72.08V15Z" fill="#59596b" class="dark_shape"/><path d="M88.78,18a7.31,7.31,0,1,1-7.3-7A7.08,7.08,0,0,1,88.78,18Zm-4.44,0a2.87,2.87,0,1,0-5.72,0,2.87,2.87,0,1,0,5.72,0Z" fill="#59596b" class="dark_shape"/><path d="M105.14,24.67h-3.62l-5.52-6v6H91.58V11.27H95.2l5.52,6.32V11.27h4.42Z" fill="#59596b" class="dark_shape"/><rect x="13.65" y="29.9" width="91.69" height="1" fill="#59596b" class="dark_shape"/></g></g></svg>