<svg xmlns="http://www.w3.org/2000/svg" width="22.25" height="26.28" viewBox="0 0 22.25 26.28"><g id="bfd8d004-fa72-4755-99d9-3b7b12e263ff" data-name="Layer 2"><g id="e1282e65-4db7-449c-832d-6c532c05b08a" data-name="Layer 1"><polygon points="15.81 17.74 0 17.74 0 0 15.53 0 15.53 8.16 13.87 8.16 13.87 1.66 1.65 1.66 1.65 16.09 15.81 16.09 15.81 17.74" fill="#9d9da8"/><polygon points="22.25 26.28 6.72 26.28 6.72 19.55 8.38 19.55 8.38 24.63 20.6 24.63 20.6 8.66 8.38 8.66 8.38 14.46 6.72 14.46 6.72 7.01 22.25 7.01 22.25 26.28" fill="#9d9da8"/><polygon points="13.28 21.53 12.11 20.36 15.56 16.91 12.14 13.49 13.31 12.32 17.9 16.91 13.28 21.53" fill="#9d9da8"/></g></g></svg>