<svg xmlns="http://www.w3.org/2000/svg" width="27.83" height="23.3" viewBox="0 0 27.83 23.3"><g id="e98dcc0b-85d2-4867-be99-0bb4b29bdb11" data-name="Layer 2"><g id="baf6bba7-411d-428e-8893-be12c6ccf34b" data-name="Layer 1"><path d="M13.55,17.92c-4.49,0-8.15-2.61-10.12-4.38A21.63,21.63,0,0,1,9.7,9.9L7.85,8.05A25.44,25.44,0,0,0,.17,13.28L0,13.43l0,0H0l.1.1c.83,1,6.05,6.72,13.44,6.72a15.86,15.86,0,0,0,5.5-1l-1.87-1.87A13.17,13.17,0,0,1,13.55,17.92Z" fill="blue"/><path d="M27.83,13.52l0,0h0l-.11-.1c-.82-1-6-6.72-13.44-6.72a15.18,15.18,0,0,0-2.45.21L5,0,3.35,1.6,25.06,23.3l1.6-1.59-4.11-4.12a26,26,0,0,0,5.11-3.93Zm-7,2.33L18.15,13.2a4.18,4.18,0,0,0,.14-1.07,4.39,4.39,0,0,0-.92-2.68,17.47,17.47,0,0,1,7,4A24.38,24.38,0,0,1,20.8,15.85Z" fill="blue"/><path d="M13.86,16.56a4.32,4.32,0,0,0,2-.5L9.93,10.13a4.36,4.36,0,0,0-.5,2A4.43,4.43,0,0,0,13.86,16.56Z" fill="blue"/></g></g></svg>