<svg xmlns="http://www.w3.org/2000/svg" width="25.36" height="25.33" viewBox="0 0 25.36 25.33"><g id="f172ab79-bbc1-42df-b332-e2e9245b7a98" data-name="Layer 2"><g id="f2fc3184-d1d9-4c12-b462-670e8d33dd45" data-name="Layer 2"><path d="M2.92,17.58,2.06,21.3l2,2.05,3.72-.89ZM0,24.71l2-8.34L13.79,4.56l7,7L9,23.35.56,25.3a.15.15,0,0,1-.11,0C.25,25.34,0,25.14,0,24.71Z" fill="#9d9da8"/><path d="M17.83,2h6.08a1.89,1.89,0,0,1,1.89,1.89V7a0,0,0,0,1,0,0H15.94a0,0,0,0,1,0,0V3.86A1.89,1.89,0,0,1,17.83,2Z" transform="translate(9.29 -13.45) rotate(45)" fill="#9d9da8"/></g></g></svg>