<svg xmlns="http://www.w3.org/2000/svg" width="32.1" height="34.9" viewBox="0 0 32.1 34.9"><g id="b954682e-8af7-40e8-a52b-41c8b5ab1192" data-name="Layer 2"><g id="b1140256-c4a9-4b57-b5c2-330c030021b6" data-name="Layer 1"><path d="M31.88,26.62l-.72,1.13a1.14,1.14,0,0,0-.19.19,16.17,16.17,0,0,1-5.32,4.72,16.87,16.87,0,0,1-15,.9c-.62-.25-1.21-.56-1.82-.84L7.14,31.64l-.24-.22c-.62-.54-1.28-1-1.85-1.6A17.07,17.07,0,0,1,2.31,9.13a18.47,18.47,0,0,1,6.3-6.55A15.5,15.5,0,0,1,20.39.36a11.33,11.33,0,0,1,7.06,4.28A9.19,9.19,0,0,1,29.08,12a10.39,10.39,0,0,1-1.5,3.6c-.55.86-1.1,1.71-1.64,2.58a2.92,2.92,0,0,0,.65,3.86,3,3,0,0,0,2.43.48A2.82,2.82,0,0,1,32,24.43,3.35,3.35,0,0,1,31.88,26.62Zm-21.2-4a2.92,2.92,0,0,0-3.93.87,2.94,2.94,0,0,0,.89,4,2.85,2.85,0,0,0,3-4.83ZM18.91,9.71a3,3,0,0,0,3.93-.89A3,3,0,0,0,22,4.88a2.94,2.94,0,0,0-4,.9A2.93,2.93,0,0,0,18.91,9.71ZM7.46,13.78a2.92,2.92,0,0,0-4,.61,2.9,2.9,0,0,0,.7,4,2.89,2.89,0,0,0,3.88-.63A2.9,2.9,0,0,0,7.46,13.78Zm1.8-3.44a2.92,2.92,0,0,0,3.93-.6A2.85,2.85,0,1,0,8.62,6.32,2.9,2.9,0,0,0,9.26,10.34Z" fill="#59596b" class="dark_shape"/></g></g></svg>