<svg xmlns="http://www.w3.org/2000/svg" width="21.79" height="29.48" viewBox="0 0 21.79 29.48"><g id="f7e0ff99-4866-4b0e-9b89-72d6bae720ba" data-name="Layer 2"><g id="e6a4b297-af8e-437e-886c-81e4e8422e84" data-name="Layer 1"><path d="M21.79,9.14c0,4.11-2.78,7-7.22,8v2H6.71l0-7.09h3.59c2.05,0,3.42-1,3.42-2.48a2.52,2.52,0,0,0-2.69-2.65C9.4,6.92,8.25,8.2,8,10.08L0,8.46C.9,3.85,4.66,0,11.58,0,17.69,0,21.79,4,21.79,9.14ZM15,25.25a4.25,4.25,0,0,1-4.49,4.23,4.21,4.21,0,0,1-4.4-4.23,4.35,4.35,0,0,1,4.4-4.31A4.4,4.4,0,0,1,15,25.25Z" fill="#59596b"/></g></g></svg>