<svg xmlns="http://www.w3.org/2000/svg" width="61.24" height="61.24" viewBox="0 0 61.24 61.24"><g id="aa1407b8-aa03-4ac5-93d1-43f1b449ad33" data-name="Layer 2"><g id="ebb68ce1-9749-4fad-b228-09b271cd30e5" data-name="Layer 1"><path d="M30.62,2A28.62,28.62,0,1,1,2,30.62,28.65,28.65,0,0,1,30.62,2m0-2A30.62,30.62,0,1,0,61.24,30.62,30.62,30.62,0,0,0,30.62,0Z" fill="#59596b" class="dark_shape"/><path d="M32.31,25.9V23.7c0-1.07.68-1.32,1.16-1.32h2.94v-4.7h-4c-4.49,0-5.51,3.5-5.51,5.75V25.9h-2.6v5.49h2.62V45.11h5.24V31.39H36l.47-5.49Z" fill="#59596b" class="dark_shape"/></g></g></svg>