<svg xmlns="http://www.w3.org/2000/svg" width="131.27" height="32.7" viewBox="0 0 131.27 32.7"><g id="e4f05f9e-13a7-4143-930a-192d7e5cfe01" data-name="Layer 2"><g id="ab83483f-05be-4981-97cd-c310bbe402f5" data-name="Layer 1"><rect width="131.27" height="32.7" rx="3.1" fill="#59596b" class="dark_shape"/><path d="M21.22,15.92A2.79,2.79,0,0,1,24.06,19c0,2.26-1.7,3.78-4.54,3.78H12.24V9.36h7.28c2.5,0,4.14,1.42,4.14,3.58a2.69,2.69,0,0,1-2.44,2.9Zm-5.14-1.1h2.38a1.28,1.28,0,0,0,1.44-1.26,1.24,1.24,0,0,0-1.38-1.22H16.08Zm2.58,5a1.31,1.31,0,0,0,1.46-1.34A1.26,1.26,0,0,0,18.7,17.2H16.08v2.58Z" fill="#fff"/><path d="M27.14,22.76V9.36H31v13.4Z" fill="#fff"/><path d="M48.44,14.76c0,.54.08.92.08,1.32a6.74,6.74,0,0,1-7.1,7,7,7,0,1,1,0-14c3.14,0,5.74,1.46,6.64,4l-3.9,1a2.8,2.8,0,0,0-2.74-1.54A3.38,3.38,0,0,0,38,16.06a3.41,3.41,0,0,0,3.46,3.54,3.07,3.07,0,0,0,3-1.68H41V14.76Z" fill="#fff"/><path d="M67.84,22.76H57.68V9.36h3.84v10.1h6.32Z" fill="#fff"/><path d="M84.6,16.06a7.22,7.22,0,1,1-7.22-7A7,7,0,0,1,84.6,16.06Zm-3.88,0a3.35,3.35,0,1,0-6.68,0,3.35,3.35,0,1,0,6.68,0Z" fill="#fff"/><path d="M101.72,14.76c0,.54.08.92.08,1.32a6.74,6.74,0,0,1-7.1,7,7,7,0,1,1,0-14c3.14,0,5.74,1.46,6.64,4l-3.9,1a2.8,2.8,0,0,0-2.74-1.54,3.38,3.38,0,0,0-3.4,3.54,3.41,3.41,0,0,0,3.46,3.54,3.07,3.07,0,0,0,3-1.68H94.26V14.76Z" fill="#fff"/><path d="M119,16.06a7.22,7.22,0,1,1-7.22-7A7,7,0,0,1,119,16.06Zm-3.88,0a3.35,3.35,0,1,0-6.68,0,3.35,3.35,0,1,0,6.68,0Z" fill="#fff"/></g></g></svg>