<svg xmlns="http://www.w3.org/2000/svg" width="139.91" height="32.7" viewBox="0 0 139.91 32.7">

<rect width="139.91" height="32.7" rx="3.1"  fill="#59596b" class="dark_shape"/>

<path d="M16.73,9.66c4.38,0,7.3,2.72,7.3,6.7s-2.92,6.7-7.3,6.7H11.07V9.66Zm-.28,10.16a3.47,3.47,0,1,0,0-6.92H14.91v6.92Z" fill="#fff"/>

<path d="M41.27,16.36a7,7,0,0,1-7.22,7,7,7,0,1,1,0-14A7,7,0,0,1,41.27,16.36Zm-3.88,0a3.35,3.35,0,1,0-6.68,0,3.35,3.35,0,1,0,6.68,0Z" fill="#fff"/>

<path d="M57.59,23.06H54.41l-6.16-6.9v6.9H44.41V9.66h3.16l6.16,7.14V9.66h3.86Z" fill="#fff"/><path d="M71,23.06l-.74-2H65l-.76,2H60.07l5.4-13.4h4.24l5.4,13.4Zm-3.36-9.28-1.48,4h2.94Z" fill="#fff"/><path d="M83.57,13v10.1H79.71V13h-4.2V9.66H87.77V13Z" fill="#fff"/>

<path d="M90.71,23.06V9.66h3.84v13.4Z" fill="#fff"/>

<path d="M112.13,16.36a7.22,7.22,0,1,1-7.22-7A7,7,0,0,1,112.13,16.36Zm-3.88,0a3.35,3.35,0,1,0-6.68,0,3.35,3.35,0,1,0,6.68,0Z" fill="#fff"/>

<path d="M128.45,23.06h-3.18l-6.16-6.9v6.9h-3.84V9.66h3.16l6.16,7.14V9.66h3.86Z" fill="#fff"/>

</svg>