<svg xmlns="http://www.w3.org/2000/svg" width="102.36" height="32.7" viewBox="0 0 102.36 32.7"><g id="aa4cad49-0680-44e8-89fc-8e3a58d0f205" data-name="Layer 2"><g id="a121dc53-8c77-4131-a37d-d9750729550b" data-name="Layer 1"><rect width="102.36" height="32.7" rx="3.1" fill="#59596b" class="dark_shape"/><path d="M22.84,17.36l3.84.74c-.58,3.26-3.22,5.26-6.88,5.26a7,7,0,1,1,0-14c3.36,0,6.26,2,6.88,5.12l-3.84.78a3,3,0,0,0-3-2.44,3.39,3.39,0,0,0-3.34,3.54A3.39,3.39,0,0,0,19.8,19.9,3,3,0,0,0,22.84,17.36Z" fill="#fff"/><path d="M43.92,16.36a7,7,0,0,1-7.22,7,7,7,0,1,1,7.22-7Zm-3.88,0a3.35,3.35,0,1,0-6.68,0,3.35,3.35,0,1,0,6.68,0Z" fill="#fff"/><path d="M57.22,23.06H47.06V9.66H50.9v10.1h6.32Z" fill="#fff"/><path d="M74,16.36a7.22,7.22,0,1,1-7.22-7A7,7,0,0,1,74,16.36Zm-3.88,0a3.35,3.35,0,1,0-6.68,0,3.35,3.35,0,1,0,6.68,0Z" fill="#fff"/><path d="M85.16,23.06l-3.68-4.28H81v4.28H77.12V9.66h7.14c2.88,0,4.82,1.8,4.82,4.5a4.36,4.36,0,0,1-3.22,4.36l3.92,4.54Zm-1.62-7.32c1.08,0,1.76-.6,1.76-1.48s-.68-1.42-1.76-1.42H81v2.9Z" fill="#fff"/></g></g></svg>