<svg xmlns="http://www.w3.org/2000/svg" width="95.41" height="33.7" viewBox="0 0 95.41 33.7"><g id="ef9e0ebd-b877-4e0c-b728-f96a0cc31113" data-name="Layer 2"><g id="f1cdd657-59c0-46fb-8676-99d35ae8ff69" data-name="Layer 1"><path d="M28.09,23.56H24L22.05,16l-1.9,7.52H16l-3.74-13.4h3.94l2.1,7.64,1.92-7.64h3.64l1.92,7.64,2.1-7.64h3.94Z" fill="#59596b" class="dark_shape"/><path d="M47.05,23.56H43.19v-5.1h-4.9v5.1H34.45V10.16h3.84v5h4.9v-5h3.86Z" fill="#59596b" class="dark_shape"/><path d="M50.51,23.56V10.16h3.84v13.4Z" fill="#59596b" class="dark_shape"/><path d="M65.35,13.46v10.1H61.49V13.46h-4.2v-3.3H69.55v3.3Z" fill="#59596b" class="dark_shape"/><path d="M83.15,23.56H72.49V10.16H83.07V13.4H76.33v2h6.2v2.94h-6.2v2h6.82Z" fill="#59596b" class="dark_shape"/><path d="M91.81,33.7H3.6A3.61,3.61,0,0,1,0,30.1V3.6A3.61,3.61,0,0,1,3.6,0H91.81a3.6,3.6,0,0,1,3.6,3.6V30.1A3.6,3.6,0,0,1,91.81,33.7ZM3.6,1A2.61,2.61,0,0,0,1,3.6V30.1a2.61,2.61,0,0,0,2.6,2.6H91.81a2.6,2.6,0,0,0,2.6-2.6V3.6A2.6,2.6,0,0,0,91.81,1Z" fill="#59596b" class="dark_shape"/></g></g></svg>