<?xml version="1.0" encoding="utf-8"?>
<svg width="120.34" height="32.7" viewBox="0 0 120.34 32.7" xmlns="http://www.w3.org/2000/svg">
  <rect class="dark_shape" width="120.34" height="32.7" rx="3.1" fill="#59596c"/>
  <path d="M 25.711 15.261 C 25.711 15.753 25.784 16.1 25.784 16.465 C 25.93 20.086 22.907 23.046 19.263 22.85 C 15.621 22.962 12.594 20.084 12.55 16.465 C 12.589 12.851 15.607 9.972 19.245 10.08 C 22.129 10.08 24.517 11.411 25.343 13.728 L 21.761 14.641 C 21.291 13.705 20.294 13.148 19.245 13.236 C 17.453 13.222 16.022 14.715 16.123 16.492 C 16.054 18.275 17.505 19.749 19.3 19.721 C 20.445 19.816 21.534 19.214 22.055 18.198 L 18.896 18.198 L 18.896 15.261 Z" style="fill: rgb(255, 255, 255);"/>
  <path d="M 38.472 22.298 L 29.05 22.298 L 29.05 11.013 L 38.375 11.013 L 38.375 13.74 L 32.434 13.74 L 32.434 15.423 L 37.899 15.423 L 37.899 17.88 L 32.434 17.88 L 32.434 19.563 L 38.472 19.563 Z" style="fill: rgb(255, 255, 255);"/>
  <path d="M 54.286 22.289 L 51.332 22.289 L 45.608 16.142 L 45.608 22.289 L 42.04 22.289 L 42.04 10.36 L 44.976 10.36 L 50.7 16.711 L 50.7 10.36 L 54.286 10.36 Z" style="fill: rgb(255, 255, 255);"/>
  <path d="M 67.707 22.321 L 57.67 22.321 L 57.67 10.36 L 67.632 10.36 L 67.632 13.25 L 61.292 13.25 L 61.292 15.034 L 67.124 15.034 L 67.124 17.639 L 61.292 17.639 L 61.292 19.423 L 67.707 19.423 Z" style="fill: rgb(255, 255, 255);"/>
  <path d="M 77.461 22.355 L 74.33 18.518 L 73.887 18.518 L 73.887 22.355 L 70.62 22.355 L 70.62 10.36 L 76.721 10.36 C 79.171 10.36 80.822 11.97 80.822 14.385 C 80.885 16.197 79.748 17.815 78.082 18.285 L 81.418 22.355 Z M 76.083 15.798 C 77.002 15.798 77.58 15.262 77.58 14.475 C 77.58 13.687 77.002 13.204 76.083 13.204 L 73.887 13.204 L 73.887 15.798 Z" style="fill: rgb(255, 255, 255);"/>
  <path d="M 93.733 22.308 L 93.109 20.552 L 88.644 20.552 L 88.011 22.308 L 84.526 22.308 L 89.092 10.541 L 92.687 10.541 L 97.244 22.308 Z M 90.898 14.159 L 89.649 17.671 L 92.13 17.671 Z" fill="#fff" style=""/>
  <path d="M 108.505 22.453 L 100.203 22.453 L 100.203 10.473 L 103.343 10.473 L 103.343 19.503 L 108.497 19.503 Z" fill="#fff" style=""/>
</svg>