<svg xmlns="http://www.w3.org/2000/svg" width="120.34" height="32.7" viewBox="0 0 120.34 32.7">

  <rect class="dark_shape" width="120.34" height="32.7" rx="3.1" fill="#59596c"  />

    <path d="M-27.91,5.65c0,.54.08.92.08,1.32a6.74,6.74,0,0,1-7.1,7,7.09,7.09,0,0,1-7.31-7,7.08,7.08,0,0,1,7.29-7c3.14,0,5.74,1.46,6.64,4l-3.9,1a2.8,2.8,0,0,0-2.74-1.54A3.38,3.38,0,0,0-38.35,7a3.41,3.41,0,0,0,3.46,3.54,3.08,3.08,0,0,0,3-1.67h-3.44V5.65Z" transform="translate(52.79 9.11)" style="fill: #fff"/>
    <path d="M-14,13.66H-24.69V.25h10.58V3.49h-6.74v2h6.2V8.41h-6.2v2H-14Z" transform="translate(52.79 9.11)" style="fill: #fff"/>
    <path d="M2.43,13.66H-.75L-6.91,6.75v6.91h-3.84V.25h3.16l6.16,7.14V.25H2.43Z" transform="translate(52.79 9.11)" style="fill: #fff"/>
    <path d="M16.55,13.66H5.88V.25H16.47V3.49H9.73v2h6.2V8.41H9.73v2h6.82Z" transform="translate(52.79 9.11)" style="fill: #fff"/>
    <path d="M27.87,13.66,24.19,9.37h-.52v4.29H19.83V.25H27c2.88,0,4.82,1.8,4.82,4.5a4.35,4.35,0,0,1-3.22,4.36l3.92,4.55ZM26.25,6.33c1.08,0,1.76-.6,1.76-1.48s-.68-1.42-1.76-1.42H23.67v2.9Z" transform="translate(52.79 9.11)" style="fill: #fff"/>
    <path d="M35.09,13.66V.25h3.84V13.66Z" transform="translate(52.79 9.11)" style="fill: #fff"/>
    <path d="M52.33,8l3.84.75C55.59,12,53,14,49.29,14a7,7,0,1,1,0-14c3.36,0,6.26,2,6.88,5.12l-3.84.78a3,3,0,0,0-3-2.44A3.39,3.39,0,0,0,46,7a3.39,3.39,0,0,0,3.34,3.54A3,3,0,0,0,52.33,8Z" transform="translate(52.79 9.11)" style="fill: #fff"/>

</svg>
