<svg xmlns="http://www.w3.org/2000/svg" width="180.07" height="32.7" viewBox="0 0 180.07 32.7"><g id="abe0e9f8-1f0e-4438-9218-8ecf97f858af" data-name="Layer 2"><g id="f298c209-58fa-4b84-835b-4274548e64f9" data-name="Layer 1"><rect width="180.07" height="32.7" rx="3.1" fill="#59596b" class="dark_shape"/><path d="M24.26,13l-3.76.76a2,2,0,0,0-2-1.68c-.84,0-1.42.42-1.42,1.08,0,.38.14.72.78.86l2.72.64c2.46.62,3.82,1.82,3.82,4,0,3.14-2.92,4.46-5.7,4.46-3.26,0-5.74-1.58-6.12-4.14l3.92-.74A2.14,2.14,0,0,0,18.76,20c.92,0,1.58-.38,1.58-1.08,0-.4-.18-.72-.92-.9l-2.78-.66C14.4,16.8,13,15.66,13,13.44c0-2.82,2.38-4.38,5.52-4.38S23.78,10.46,24.26,13Z" fill="#fff"/><path d="M27.52,22.76V9.36h3.84v13.4Z" fill="#fff"/><path d="M48.82,14.76c0,.54.08.92.08,1.32a6.74,6.74,0,0,1-7.1,7,7,7,0,1,1,0-14c3.14,0,5.74,1.46,6.64,4l-3.9,1a2.8,2.8,0,0,0-2.74-1.54,3.38,3.38,0,0,0-3.4,3.54,3.41,3.41,0,0,0,3.46,3.54,3.07,3.07,0,0,0,3-1.68H41.36V14.76Z" fill="#fff"/><path d="M65.22,22.76H62l-6.16-6.9v6.9H52V9.36H55.2l6.16,7.14V9.36h3.86Z" fill="#fff"/><path d="M81.08,16.7c0,3.9-2.44,6.36-6.1,6.36S68.7,20.6,68.7,16.7V9.36h3.86V16.7c0,1.82,1,2.88,2.42,2.88s2.24-1.06,2.24-2.88V9.36h3.86Z" fill="#fff"/><path d="M91.52,9.36a4.54,4.54,0,0,1,4.9,4.72c0,2.92-2,4.86-5.18,4.86H88.42v3.82H84.58V9.36Zm-.74,6.54a1.69,1.69,0,1,0,0-3.36H88.42V15.9Z" fill="#fff"/><path d="M109.32,15h6.08v3.34h-6.08v4.38h-3.84V9.36h10.7v3.32h-6.86Z" fill="#fff"/><path d="M133.18,16.06a7.22,7.22,0,1,1-7.22-7A7,7,0,0,1,133.18,16.06Zm-3.88,0a3.35,3.35,0,1,0-6.68,0,3.35,3.35,0,1,0,6.68,0Z" fill="#fff"/><path d="M144.36,22.76l-3.68-4.28h-.52v4.28h-3.84V9.36h7.14c2.88,0,4.82,1.8,4.82,4.5a4.36,4.36,0,0,1-3.22,4.36L149,22.76Zm-1.62-7.32c1.08,0,1.76-.6,1.76-1.48s-.68-1.42-1.76-1.42h-2.58v2.9Z" fill="#fff"/><path d="M167.56,22.76H163.8V16.14l-3.32,6.62h-1.82l-3.32-6.58v6.58h-3.76V9.36h4.06l3.92,7.72,3.94-7.72h4.06Z" fill="#fff"/></g></g></svg>