<svg xmlns="http://www.w3.org/2000/svg" width="41.17" height="41.16" viewBox="0 0 41.17 41.16"><g id="e6b0438e-968c-4f64-bd92-1e78b07fd5a5" data-name="Layer 2"><g id="b32fbdd0-ea53-4d0e-9d2f-b93818e7141c" data-name="Layer 1"><path d="M20.58,41.16A20.58,20.58,0,1,1,41.17,20.58,20.6,20.6,0,0,1,20.58,41.16Zm0-39A18.46,18.46,0,1,0,39,20.58,18.46,18.46,0,0,0,20.58,2.13Z" fill="#9d9da8"/><path d="M32.08,19.24,20.72,7.83a.18.18,0,0,0-.24,0L9.08,19.19a.16.16,0,0,0,.11.28H15v12H26.12V19.51H32A.17.17,0,0,0,32.08,19.24Z" fill="#9d9da8"/></g></g></svg>