<svg width="24" height="24" viewBox="0 0 24 24" fill="none" xmlns="http://www.w3.org/2000/svg">
<rect x="0.5" y="0.5" width="23" height="23" fill="#797A7B"/>
<path d="M6 16.1325V7.0325H8.73V10.3345C9.25867 9.74517 9.93033 9.4505 10.745 9.4505C11.447 9.4505 11.9843 9.64117 12.357 10.0225C12.7383 10.3952 12.929 10.9325 12.929 11.6345V16.1325H10.199V12.4665C10.199 12.2325 10.1383 12.0505 10.017 11.9205C9.90433 11.7818 9.73967 11.7125 9.523 11.7125C9.38433 11.7125 9.25 11.7515 9.12 11.8295C8.99 11.9075 8.899 11.9812 8.847 12.0505C8.795 12.1112 8.756 12.1632 8.73 12.2065V16.1325H6Z" fill="white"/>
<path d="M14.9611 16.1325V9.47L13.5766 10.0615V7.819L15.3056 7H17.2751V16.1325H14.9611Z" fill="white"/>
<rect x="0.5" y="0.5" width="23" height="23" stroke="#8E8D91"/>
</svg>
