<svg width="24" height="24" viewBox="0 0 24 24" fill="none" xmlns="http://www.w3.org/2000/svg">
<rect x="0.5" y="0.5" width="23" height="23" fill="#797A7B"/>
<path d="M5 16.3275V7.2275H7.73V10.5295C8.25867 9.94017 8.93033 9.6455 9.745 9.6455C10.447 9.6455 10.9843 9.83617 11.357 10.2175C11.7383 10.5902 11.929 11.1275 11.929 11.8295V16.3275H9.199V12.6615C9.199 12.4275 9.13833 12.2455 9.017 12.1155C8.90433 11.9768 8.73967 11.9075 8.523 11.9075C8.38433 11.9075 8.25 11.9465 8.12 12.0245C7.99 12.1025 7.899 12.1762 7.847 12.2455C7.795 12.3062 7.756 12.3582 7.73 12.4015V16.3275H5Z" fill="white"/>
<path d="M12.6351 16.3275V14.631L15.4496 11.7385C15.7919 11.3875 16.0671 11.069 16.2751 10.783C16.4874 10.4927 16.5936 10.2175 16.5936 9.9575C16.5936 9.8015 16.5611 9.665 16.4961 9.548C16.4354 9.431 16.3422 9.34 16.2166 9.275C16.0909 9.21 15.9349 9.1775 15.7486 9.1775C15.4972 9.1775 15.2697 9.2685 15.0661 9.4505C14.8667 9.6325 14.7151 9.873 14.6111 10.172L12.7196 9.314C13.0272 8.53833 13.4606 7.95983 14.0196 7.5785C14.5786 7.19283 15.2134 7 15.9241 7C16.5264 7 17.0594 7.13433 17.5231 7.403C17.9867 7.66733 18.3442 8.01833 18.5956 8.456C18.8469 8.88933 18.9726 9.35083 18.9726 9.8405C18.9726 10.2955 18.8989 10.7137 18.7516 11.095C18.6042 11.472 18.4027 11.8187 18.1471 12.135C17.8957 12.447 17.5902 12.7612 17.2306 13.0775L15.9826 14.1695H18.9336V16.3275H12.6351Z" fill="white"/>
<rect x="0.5" y="0.5" width="23" height="23" stroke="#8E8D91"/>
</svg>
