<svg width="24" height="24" viewBox="0 0 24 24" fill="none" xmlns="http://www.w3.org/2000/svg">
<rect x="0.5" y="0.5" width="23" height="23" fill="#797A7B"/>
<path d="M4 16.1325V7.0325H6.73V10.3345C7.25867 9.74517 7.93033 9.4505 8.745 9.4505C9.447 9.4505 9.98433 9.64117 10.357 10.0225C10.7383 10.3952 10.929 10.9325 10.929 11.6345V16.1325H8.199V12.4665C8.199 12.2325 8.13833 12.0505 8.017 11.9205C7.90433 11.7818 7.73967 11.7125 7.523 11.7125C7.38433 11.7125 7.25 11.7515 7.12 11.8295C6.99 11.9075 6.899 11.9812 6.847 12.0505C6.795 12.1112 6.756 12.1632 6.73 12.2065V16.1325H4Z" fill="white"/>
<path d="M16.1721 16.1325V14.592H11.9016V12.9605L16.0291 7H18.3821V12.707H19.4026V14.592H18.3821V16.1325H16.1721ZM14.3196 12.707H16.1721V9.8145L14.3196 12.707Z" fill="white"/>
<rect x="0.5" y="0.5" width="23" height="23" stroke="#8E8D91"/>
</svg>
