<svg width="24" height="24" viewBox="0 0 24 24" fill="none" xmlns="http://www.w3.org/2000/svg">
<rect x="0.5" y="0.5" width="23" height="23" fill="#797A7B"/>
<path fill-rule="evenodd" clip-rule="evenodd" d="M13.2057 7.88085C13.3195 7.74352 13.4598 7.62982 13.6186 7.54637C13.7773 7.46293 13.9513 7.41141 14.1303 7.39483C14.3093 7.37824 14.4897 7.39692 14.6612 7.44978C14.8326 7.50264 14.9915 7.58861 15.1286 7.70268C15.2658 7.81676 15.3784 7.95665 15.46 8.11419C15.5415 8.27174 15.5903 8.44378 15.6036 8.62028C15.6169 8.79678 15.5943 8.97421 15.5372 9.14221C15.4801 9.31021 15.3897 9.46542 15.2711 9.59878L13.4149 11.7613C13.1828 12.0316 12.8515 12.2003 12.4938 12.2303C12.136 12.2604 11.7812 12.1493 11.5073 11.9216C11.3699 11.8113 11.1939 11.7587 11.0171 11.775C10.8404 11.7914 10.6771 11.8755 10.5624 12.0091C10.4476 12.1428 10.3907 12.3153 10.4038 12.4896C10.4169 12.6638 10.499 12.8259 10.6324 12.9408C11.1802 13.3963 11.8899 13.6185 12.6054 13.5584C13.3208 13.4982 13.9835 13.1608 14.4476 12.6202L16.3038 10.4577C16.7532 9.9154 16.9688 9.22148 16.9041 8.52544C16.8394 7.82941 16.4997 7.18694 15.958 6.73642C15.4164 6.2859 14.7162 6.06337 14.0082 6.11676C13.3002 6.17016 12.6412 6.4952 12.173 7.02188L11.2448 8.10313C11.1856 8.16981 11.1403 8.24741 11.1118 8.33141C11.0832 8.41541 11.072 8.50413 11.0786 8.59238C11.0852 8.68063 11.1096 8.76665 11.1504 8.84542C11.1912 8.92419 11.2475 8.99414 11.3161 9.05118C11.3847 9.10821 11.4641 9.1512 11.5498 9.17763C11.6355 9.20406 11.7258 9.2134 11.8153 9.2051C11.9048 9.19681 11.9917 9.17105 12.0711 9.12933C12.1505 9.08761 12.2207 9.03076 12.2776 8.96209L13.2057 7.88085V7.88085ZM10.112 11.485C10.344 11.2147 10.6754 11.046 11.0331 11.016C11.3908 10.9859 11.7457 11.097 12.0196 11.3247C12.0871 11.3829 12.1658 11.4273 12.2511 11.4552C12.3363 11.483 12.4263 11.4939 12.516 11.4872C12.6056 11.4804 12.693 11.4561 12.7731 11.4158C12.8532 11.3754 12.9244 11.3198 12.9825 11.2521C13.0405 11.1844 13.0844 11.1061 13.1115 11.0216C13.1385 10.9371 13.1482 10.8482 13.1401 10.7601C13.1319 10.672 13.1059 10.5864 13.0638 10.5083C13.0216 10.4303 12.9641 10.3613 12.8945 10.3055C12.3467 9.84994 11.637 9.62781 10.9215 9.68793C10.2061 9.74805 9.54339 10.0855 9.07926 10.626L7.22304 12.7885C6.98593 13.0553 6.80501 13.3657 6.69083 13.7017C6.57666 14.0377 6.53152 14.3925 6.55804 14.7455C6.58457 15.0985 6.68223 15.4426 6.84534 15.7577C7.00844 16.0728 7.23371 16.3526 7.50801 16.5807C7.78231 16.8089 8.10014 16.9808 8.44296 17.0865C8.78578 17.1922 9.14673 17.2296 9.50473 17.1964C9.86274 17.1633 10.2106 17.0602 10.5281 16.8933C10.8456 16.7265 11.1263 16.4991 11.3539 16.2244L12.282 15.1432C12.3413 15.0765 12.3865 14.9989 12.4151 14.9149C12.4436 14.8309 12.4549 14.7422 12.4483 14.6539C12.4416 14.5657 12.4172 14.4796 12.3765 14.4009C12.3357 14.3221 12.2794 14.2521 12.2108 14.1951C12.1422 14.1381 12.0628 14.0951 11.977 14.0687C11.8913 14.0422 11.8011 14.0329 11.7116 14.0412C11.6221 14.0495 11.5351 14.0752 11.4558 14.117C11.3764 14.1587 11.3062 14.2155 11.2493 14.2842L10.3212 15.3654C10.2074 15.5028 10.067 15.6165 9.9083 15.6999C9.74956 15.7834 9.57561 15.8349 9.39661 15.8515C9.2176 15.868 9.03713 15.8494 8.86572 15.7965C8.69431 15.7436 8.53539 15.6577 8.39824 15.5436C8.26109 15.4295 8.14846 15.2896 8.06691 15.1321C7.98536 14.9745 7.93653 14.8025 7.92326 14.626C7.91 14.4495 7.93257 14.2721 7.98966 14.1041C8.04674 13.9361 8.1372 13.7809 8.25576 13.6475L10.112 11.485Z" fill="white"/>
<rect x="0.5" y="0.5" width="23" height="23" stroke="#8E8D91"/>
</svg>
